<svg width="84" height="26" viewBox="0 0 84 26" fill="none" xmlns="http://www.w3.org/2000/svg">
<path d="M1.94309 20.5302H2.54464L1.71336 24.4798H3.96228L3.85046 25.0141H1L1.94309 20.5302Z" fill="#0D0808"/>
<path d="M14.7908 21.1709C15.0025 21.5674 15.0428 22.0753 14.9118 22.6945C14.7707 23.3635 14.4856 23.9202 14.0564 24.3636C13.5505 24.8842 12.9318 25.145 12.2004 25.145C11.5172 25.145 11.0285 24.9174 10.7343 24.4613C10.4783 24.0218 10.421 23.4661 10.562 22.7951C10.689 22.1886 10.9469 21.67 11.3358 21.2383C11.8356 20.6845 12.4603 20.4081 13.2099 20.4081C13.9939 20.4081 14.5209 20.6621 14.7908 21.1709ZM14.2921 22.7033C14.4029 22.1759 14.3555 21.752 14.15 21.4307C13.9465 21.1094 13.6079 20.9482 13.1344 20.9482C12.6749 20.9482 12.2659 21.1084 11.9072 21.4278C11.5505 21.7452 11.3066 22.214 11.1756 22.8342C11.0709 23.3313 11.1072 23.7503 11.2845 24.0921C11.4618 24.432 11.8295 24.6019 12.3877 24.6019C12.9178 24.6019 13.341 24.4105 13.6574 24.0277C13.9757 23.6429 14.1873 23.2014 14.2921 22.7033Z" fill="#0D0808"/>
<path d="M24.9425 20.6582C25.3335 20.8926 25.5169 21.3028 25.4927 21.8888H24.8973C24.8932 21.5606 24.7935 21.3223 24.598 21.1738C24.4025 21.0234 24.1315 20.9482 23.7848 20.9482C23.3737 20.9482 22.9949 21.1035 22.6483 21.4151C22.3017 21.7266 22.0629 22.1905 21.9319 22.8068C21.819 23.3401 21.8432 23.7747 22.0044 24.1107C22.1676 24.4437 22.5113 24.6107 23.0352 24.6107C23.4362 24.6107 23.7929 24.4935 24.1053 24.2601C24.4176 24.0237 24.6313 23.6429 24.7461 23.1184H23.3556L23.4644 22.6144H25.4142L24.9094 25.0141H24.5224L24.4983 24.4369C24.2463 24.6625 24.0327 24.8197 23.8573 24.9067C23.5612 25.0571 23.2095 25.1323 22.8024 25.1323C22.2764 25.1323 21.8603 24.9604 21.5541 24.6166C21.2316 24.1859 21.1499 23.593 21.3092 22.841C21.4663 22.0899 21.7939 21.4922 22.2916 21.0488C22.7632 20.6259 23.3032 20.414 23.9118 20.414C24.329 20.414 24.6726 20.495 24.9425 20.6582Z" fill="#0D0808"/>
<path d="M32.8049 20.5302H33.4125L32.4695 25.0141H31.8618L32.8049 20.5302Z" fill="#0D0808"/>
<path d="M40.0255 23.5667C39.9873 23.8216 40.0034 24.0276 40.0739 24.1868C40.211 24.4837 40.5314 24.6322 41.0352 24.6322C41.2608 24.6322 41.4734 24.6 41.673 24.5345C42.0579 24.4085 42.2846 24.1829 42.3531 23.8567C42.4055 23.6126 42.3662 23.4387 42.2353 23.3352C42.1042 23.2336 41.8836 23.1447 41.5733 23.0695L40.9989 22.9318C40.6261 22.8429 40.3692 22.7443 40.2281 22.6359C39.9863 22.4484 39.9046 22.169 39.9833 21.7969C40.0679 21.3936 40.2755 21.0635 40.606 20.8046C40.9364 20.5468 41.3546 20.4169 41.8604 20.4169C42.3259 20.4169 42.6967 20.5312 42.9724 20.7587C43.251 20.9853 43.3371 21.3467 43.2326 21.8458H42.6674C42.6877 21.6055 42.6624 21.4209 42.5919 21.293C42.4569 21.0595 42.1697 20.9423 41.7304 20.9423C41.3757 20.9423 41.1047 21.0175 40.9173 21.168C40.7319 21.3184 40.6181 21.4932 40.5757 21.6934C40.5294 21.9131 40.5858 22.0733 40.745 22.1749C40.8497 22.2403 41.1017 22.3214 41.5007 22.4191L42.0932 22.5626C42.3793 22.632 42.5909 22.7267 42.7279 22.8468C42.9676 23.0559 43.045 23.3606 42.9608 23.7591C42.8559 24.2562 42.602 24.6107 42.199 24.8246C41.7959 25.0385 41.3576 25.1449 40.8841 25.1449C40.3319 25.1449 39.9299 25.0024 39.678 24.7172C39.426 24.4349 39.3535 24.0511 39.4603 23.5667H40.0255Z" fill="#0D0808"/>
<path d="M53.5136 20.5302L53.4024 21.0644H51.906L51.0742 25.0141H50.4638L51.2957 21.0644H49.7993L49.9105 20.5302H53.5136Z" fill="#0D0808"/>
<path d="M60.0847 20.5302H60.6921L59.7491 25.0141H59.1416L60.0847 20.5302Z" fill="#0D0808"/>
<path d="M70.9655 21.8761H70.3793C70.3725 21.587 70.2884 21.3584 70.1249 21.1895C69.9614 21.0205 69.7012 20.9365 69.3424 20.9365C68.9052 20.9365 68.5192 21.0918 68.1846 21.4034C67.8518 21.712 67.6177 22.1876 67.4833 22.8283C67.372 23.3538 67.403 23.7796 67.5771 24.1068C67.7522 24.433 68.0801 24.5951 68.5618 24.5951C69.0058 24.5951 69.3791 24.4232 69.6838 24.0794C69.8425 23.8987 69.9837 23.6604 70.1065 23.3655H70.6937C70.5418 23.8372 70.2864 24.2337 69.9256 24.5531C69.4904 24.9369 68.9729 25.1293 68.3751 25.1293C67.8586 25.1293 67.4591 24.9721 67.1747 24.6566C66.8023 24.2396 66.7075 23.595 66.8903 22.7248C67.0296 22.0636 67.3169 21.5206 67.7522 21.0977C68.2232 20.6377 68.7891 20.4081 69.4478 20.4081C70.0098 20.4081 70.4151 20.5576 70.6627 20.8564C70.9113 21.1563 71.0119 21.4952 70.9655 21.8761Z" fill="#0D0808"/>
<path d="M77.6604 23.5667C77.6217 23.8216 77.6382 24.0276 77.7088 24.1868C77.8452 24.4837 78.1653 24.6322 78.6693 24.6322C78.8956 24.6322 79.1075 24.6 79.3077 24.5345C79.6927 24.4085 79.919 24.1829 79.9877 23.8567C80.0399 23.6126 80.0003 23.4387 79.8697 23.3352C79.7391 23.2336 79.5176 23.1447 79.2081 23.0695L78.6335 22.9318C78.2601 22.8429 78.0038 22.7443 77.8626 22.6359C77.6208 22.4484 77.5395 22.169 77.6179 21.7969C77.702 21.3936 77.91 21.0635 78.2408 20.8046C78.5706 20.5468 78.9895 20.4169 79.4944 20.4169C79.9606 20.4169 80.3311 20.5312 80.6067 20.7587C80.8853 20.9853 80.9724 21.3467 80.8669 21.8458H80.3021C80.3224 21.6055 80.2972 21.4209 80.2266 21.293C80.0912 21.0595 79.8039 20.9423 79.3648 20.9423C79.0098 20.9423 78.7389 21.0175 78.5513 21.168C78.3665 21.3184 78.2524 21.4932 78.2098 21.6934C78.1634 21.9131 78.2205 22.0733 78.3791 22.1749C78.4845 22.2403 78.736 22.3214 79.1355 22.4191L79.7275 22.5626C80.0138 22.632 80.2256 22.7267 80.362 22.8468C80.6019 23.0559 80.6793 23.3606 80.5951 23.7591C80.4907 24.2562 80.2363 24.6107 79.8329 24.8246C79.4305 25.0385 78.9924 25.1449 78.5184 25.1449C77.9661 25.1449 77.5647 25.0024 77.3122 24.7172C77.0607 24.4349 76.9882 24.0511 77.0946 23.5667H77.6604Z" fill="#0D0808"/>
<path d="M1.94309 20.5302H2.54464L1.71336 24.4798H3.96228L3.85046 25.0141H1L1.94309 20.5302Z" fill="#0D0808" stroke="#0D0808" stroke-width="0.392498"/>
<path d="M14.7908 21.1709C15.0025 21.5674 15.0428 22.0753 14.9118 22.6945C14.7707 23.3635 14.4856 23.9202 14.0564 24.3636C13.5505 24.8842 12.9318 25.145 12.2004 25.145C11.5172 25.145 11.0285 24.9174 10.7343 24.4613C10.4783 24.0218 10.421 23.4661 10.562 22.7951C10.689 22.1886 10.9469 21.67 11.3358 21.2383C11.8356 20.6845 12.4603 20.4081 13.2099 20.4081C13.9939 20.4081 14.5209 20.6621 14.7908 21.1709ZM14.2921 22.7033C14.4029 22.1759 14.3555 21.752 14.15 21.4307C13.9465 21.1094 13.6079 20.9482 13.1344 20.9482C12.6749 20.9482 12.2659 21.1084 11.9072 21.4278C11.5505 21.7452 11.3066 22.214 11.1756 22.8342C11.0709 23.3313 11.1072 23.7503 11.2845 24.0921C11.4618 24.432 11.8295 24.6019 12.3877 24.6019C12.9178 24.6019 13.341 24.4105 13.6574 24.0277C13.9757 23.6429 14.1873 23.2014 14.2921 22.7033Z" fill="#0D0808" stroke="#0D0808" stroke-width="0.392498"/>
<path d="M24.9425 20.6582C25.3335 20.8926 25.5169 21.3028 25.4927 21.8888H24.8973C24.8932 21.5606 24.7935 21.3223 24.598 21.1738C24.4025 21.0234 24.1315 20.9482 23.7848 20.9482C23.3737 20.9482 22.9949 21.1035 22.6483 21.4151C22.3017 21.7266 22.0629 22.1905 21.9319 22.8068C21.819 23.3401 21.8432 23.7747 22.0044 24.1107C22.1676 24.4437 22.5113 24.6107 23.0352 24.6107C23.4362 24.6107 23.7929 24.4935 24.1053 24.2601C24.4176 24.0237 24.6313 23.6429 24.7461 23.1184H23.3556L23.4644 22.6144H25.4142L24.9094 25.0141H24.5224L24.4983 24.4369C24.2463 24.6625 24.0327 24.8197 23.8573 24.9067C23.5612 25.0571 23.2095 25.1323 22.8024 25.1323C22.2764 25.1323 21.8603 24.9604 21.5541 24.6166C21.2316 24.1859 21.1499 23.593 21.3092 22.841C21.4663 22.0899 21.7939 21.4922 22.2916 21.0488C22.7632 20.6259 23.3032 20.414 23.9118 20.414C24.329 20.414 24.6726 20.495 24.9425 20.6582Z" fill="#0D0808" stroke="#0D0808" stroke-width="0.392498"/>
<path d="M32.8049 20.5302H33.4125L32.4695 25.0141H31.8618L32.8049 20.5302Z" fill="#0D0808" stroke="#0D0808" stroke-width="0.392498"/>
<path d="M40.0255 23.5667C39.9873 23.8216 40.0034 24.0276 40.0739 24.1868C40.211 24.4837 40.5314 24.6322 41.0352 24.6322C41.2608 24.6322 41.4734 24.6 41.673 24.5345C42.0579 24.4085 42.2846 24.1829 42.3531 23.8567C42.4055 23.6126 42.3662 23.4387 42.2353 23.3352C42.1042 23.2336 41.8836 23.1447 41.5733 23.0695L40.9989 22.9318C40.6261 22.8429 40.3692 22.7443 40.2281 22.6359C39.9863 22.4484 39.9046 22.169 39.9833 21.7969C40.0679 21.3936 40.2755 21.0635 40.606 20.8046C40.9364 20.5468 41.3546 20.4169 41.8604 20.4169C42.3259 20.4169 42.6967 20.5312 42.9724 20.7587C43.251 20.9853 43.3371 21.3467 43.2326 21.8458H42.6674C42.6877 21.6055 42.6624 21.4209 42.5919 21.293C42.4569 21.0595 42.1697 20.9423 41.7304 20.9423C41.3757 20.9423 41.1047 21.0175 40.9173 21.168C40.7319 21.3184 40.6181 21.4932 40.5757 21.6934C40.5294 21.9131 40.5858 22.0733 40.745 22.1749C40.8497 22.2403 41.1017 22.3214 41.5007 22.4191L42.0932 22.5626C42.3793 22.632 42.5909 22.7267 42.7279 22.8468C42.9676 23.0559 43.045 23.3606 42.9608 23.7591C42.8559 24.2562 42.602 24.6107 42.199 24.8246C41.7959 25.0385 41.3576 25.1449 40.8841 25.1449C40.3319 25.1449 39.9299 25.0024 39.678 24.7172C39.426 24.4349 39.3535 24.0511 39.4603 23.5667H40.0255Z" fill="#0D0808" stroke="#0D0808" stroke-width="0.392498"/>
<path d="M53.5136 20.5302L53.4024 21.0644H51.906L51.0742 25.0141H50.4638L51.2957 21.0644H49.7993L49.9105 20.5302H53.5136Z" fill="#0D0808" stroke="#0D0808" stroke-width="0.392498"/>
<path d="M60.0847 20.5302H60.6921L59.7491 25.0141H59.1416L60.0847 20.5302Z" fill="#0D0808" stroke="#0D0808" stroke-width="0.392498"/>
<path d="M70.9655 21.8761H70.3793C70.3725 21.587 70.2884 21.3584 70.1249 21.1895C69.9614 21.0205 69.7012 20.9365 69.3424 20.9365C68.9052 20.9365 68.5192 21.0918 68.1846 21.4034C67.8518 21.712 67.6177 22.1876 67.4833 22.8283C67.372 23.3538 67.403 23.7796 67.5771 24.1068C67.7522 24.433 68.0801 24.5951 68.5618 24.5951C69.0058 24.5951 69.3791 24.4232 69.6838 24.0794C69.8425 23.8987 69.9837 23.6604 70.1065 23.3655H70.6937C70.5418 23.8372 70.2864 24.2337 69.9256 24.5531C69.4904 24.9369 68.9729 25.1293 68.3751 25.1293C67.8586 25.1293 67.4591 24.9721 67.1747 24.6566C66.8023 24.2396 66.7075 23.595 66.8903 22.7248C67.0296 22.0636 67.3169 21.5206 67.7522 21.0977C68.2232 20.6377 68.7891 20.4081 69.4478 20.4081C70.0098 20.4081 70.4151 20.5576 70.6627 20.8564C70.9113 21.1563 71.0119 21.4952 70.9655 21.8761Z" fill="#0D0808" stroke="#0D0808" stroke-width="0.392498"/>
<path d="M77.6604 23.5667C77.6217 23.8216 77.6382 24.0276 77.7088 24.1868C77.8452 24.4837 78.1653 24.6322 78.6693 24.6322C78.8956 24.6322 79.1075 24.6 79.3077 24.5345C79.6927 24.4085 79.919 24.1829 79.9877 23.8567C80.0399 23.6126 80.0003 23.4387 79.8697 23.3352C79.7391 23.2336 79.5176 23.1447 79.2081 23.0695L78.6335 22.9318C78.2601 22.8429 78.0038 22.7443 77.8626 22.6359C77.6208 22.4484 77.5395 22.169 77.6179 21.7969C77.702 21.3936 77.91 21.0635 78.2408 20.8046C78.5706 20.5468 78.9895 20.4169 79.4944 20.4169C79.9606 20.4169 80.3311 20.5312 80.6067 20.7587C80.8853 20.9853 80.9724 21.3467 80.8669 21.8458H80.3021C80.3224 21.6055 80.2972 21.4209 80.2266 21.293C80.0912 21.0595 79.8039 20.9423 79.3648 20.9423C79.0098 20.9423 78.7389 21.0175 78.5513 21.168C78.3665 21.3184 78.2524 21.4932 78.2098 21.6934C78.1634 21.9131 78.2205 22.0733 78.3791 22.1749C78.4845 22.2403 78.736 22.3214 79.1355 22.4191L79.7275 22.5626C80.0138 22.632 80.2256 22.7267 80.362 22.8468C80.6019 23.0559 80.6793 23.3606 80.5951 23.7591C80.4907 24.2562 80.2363 24.6107 79.8329 24.8246C79.4305 25.0385 78.9924 25.1449 78.5184 25.1449C77.9661 25.1449 77.5647 25.0024 77.3122 24.7172C77.0607 24.4349 76.9882 24.0511 77.0946 23.5667H77.6604Z" fill="#0D0808" stroke="#0D0808" stroke-width="0.392498"/>
<path fill-rule="evenodd" clip-rule="evenodd" d="M1.8689 17.8571C1.91823 17.6446 1.96901 17.4323 2.01979 17.2201C2.12135 16.7956 2.22292 16.3712 2.31307 15.9466C2.47334 15.1908 2.63333 14.4349 2.79313 13.6791H7.59816H16.2373C16.2352 13.7146 16.2345 13.7475 16.2338 13.7783C16.2323 13.8433 16.2311 13.8991 16.2179 13.952C16.1216 14.4097 16.0227 14.8675 15.9237 15.3256C15.7515 16.1223 15.5791 16.9201 15.4197 17.7203C15.3747 17.9547 15.2716 17.9801 15.0786 17.9801C13.5765 17.9762 12.0744 17.9772 10.5723 17.9792C9.82124 17.9792 9.07025 17.9801 8.31916 17.9801H1.88176C1.8689 17.9411 1.8689 17.902 1.8689 17.8571ZM8.07454 11.3531H8.44152C10.8684 11.3531 13.2889 11.3531 15.7158 11.3596C15.9347 11.3596 16.0312 11.3141 16.0699 11.0737C16.1309 10.7129 16.2097 10.3546 16.2887 9.99568C16.335 9.78589 16.3812 9.57581 16.424 9.36485C16.5656 8.70219 16.7008 8.03942 16.8424 7.33124H8.93716H4.13425C3.90897 8.39678 3.68389 9.46233 3.4589 10.5279L3.2847 11.3531H8.07454ZM9.42001 5.05072L4.60473 5.10912C4.64807 4.90431 4.69131 4.69932 4.73464 4.49422C4.9812 3.32671 5.22843 2.15597 5.48031 0.989832C5.49317 0.918438 5.51891 0.846951 5.54464 0.775459H18.9925C18.8413 1.49018 18.6915 2.20158 18.5419 2.91309C18.3923 3.62449 18.2425 4.336 18.0912 5.05072H9.42001Z" fill="#0D0808"/>
<path d="M60.116 11.2099C60.8182 7.73388 61.5127 4.26438 62.215 0.781775C63.7597 0.781775 65.2658 0.781775 66.7979 0.781775C66.5406 2.00974 66.2901 3.21826 66.0318 4.43324C65.0926 8.87092 64.1524 13.3021 63.219 17.7398C63.1803 17.9215 63.1358 17.9928 62.9356 17.9928C61.3715 17.9869 59.8074 17.9869 58.1911 17.9869C56.9491 14.504 55.4557 11.1125 54.3868 7.58446C53.6914 11.0345 52.9901 14.504 52.2878 17.9733C50.7373 17.9733 49.2438 17.9733 47.7117 17.9733C47.8848 17.1485 48.0522 16.3363 48.2195 15.5242C49.0504 11.5867 49.8871 7.64296 50.718 3.70552C50.9105 2.79595 51.1107 1.89283 51.2906 0.983159C51.3225 0.80775 51.3999 0.755791 51.5672 0.755791C53.08 0.762237 54.5929 0.75579 56.1057 0.76878C56.1956 0.76878 56.3378 0.872699 56.3697 0.957181C57.6253 4.31633 59.0094 7.63641 60.0522 11.0735C60.0715 11.132 60.1034 11.1774 60.116 11.2099Z" fill="#0D0808"/>
<path d="M84.0001 7.38943C83.9227 10.1508 83.2727 12.5678 81.5732 14.6014C79.7325 16.804 77.3888 18.0583 74.5373 18.318C72.9345 18.4675 71.3569 18.3571 69.8702 17.7135C67.482 16.674 66.0466 14.8483 65.8076 12.2105C65.5252 9.15671 66.2458 6.36286 68.2606 4.00431C70.0694 1.88621 72.3677 0.690665 75.136 0.430774C76.88 0.268354 78.5863 0.398349 80.1958 1.16503C82.32 2.17862 83.5629 3.86786 83.9034 6.22642C83.9614 6.65527 83.9808 7.10356 84.0001 7.38943ZM73.5265 14.1726C74.9493 14.2376 76.0946 13.8348 76.9187 13.0421C78.5863 11.4372 79.1531 9.4166 78.9142 7.16851C78.7662 5.72617 77.8009 4.79052 76.4554 4.60857C74.692 4.36821 73.2498 4.97248 72.1549 6.37585C71.2021 7.59737 70.8036 9.03326 70.7001 10.5601C70.6556 11.2163 70.7069 11.8595 70.9777 12.4638C71.5242 13.6918 72.5418 14.1402 73.5265 14.1726Z" fill="#0D0808"/>
<path d="M43.4961 11.3659C41.5197 11.3659 39.5885 11.3659 37.625 11.3659C37.1616 13.5685 36.698 15.7645 36.2345 17.9733C34.638 17.9733 33.0609 17.9733 31.4451 17.9733C32.6617 12.2301 33.872 6.51236 35.0822 0.775322C36.6723 0.775322 38.243 0.775322 39.8717 0.775322C39.4275 2.8609 38.9898 4.93358 38.5392 7.03214C40.509 7.03214 42.4403 7.03214 44.4102 7.03214C44.5582 6.33051 44.713 5.61579 44.8668 4.90106C45.1444 3.6016 45.4268 2.30215 45.6977 1.00269C45.7296 0.846716 45.7615 0.749341 45.955 0.755787C47.4484 0.762331 48.9361 0.762332 50.4296 0.762332C50.4615 0.762332 50.4934 0.775321 50.5389 0.788311C49.3288 6.51236 48.1178 12.2365 46.9077 17.9674C45.3049 17.9674 43.7215 17.9674 42.1184 17.9674C42.5754 15.7711 43.0328 13.5879 43.4961 11.3659Z" fill="#0D0808"/>
<path d="M34.5316 0.781775C34.2291 2.20468 33.933 3.60805 33.6304 5.04405C31.963 5.04405 30.2957 5.04405 28.5962 5.04405C27.6822 9.37117 26.768 13.6724 25.8604 17.9733C24.251 17.9733 22.6803 17.9733 21.0709 17.9733C21.9785 13.666 22.8862 9.38416 23.8004 5.06348C22.1202 5.06348 20.4593 5.06348 18.7727 5.06348C18.9594 4.1669 19.1397 3.30275 19.3199 2.43859C19.4229 1.96432 19.5259 1.48996 19.6161 1.00914C19.6482 0.833734 19.7061 0.755791 19.9057 0.755791C24.7338 0.762237 29.5619 0.762241 34.39 0.762241C34.4222 0.762241 34.4543 0.768785 34.5316 0.781775Z" fill="#0D0808"/>
</svg>
